<?xml version="1.0" encoding="UTF-8" standalone="no"?>
<svg
   xmlns:dc="http://purl.org/dc/elements/1.1/"
   xmlns:cc="http://creativecommons.org/ns#"
   xmlns:rdf="http://www.w3.org/1999/02/22-rdf-syntax-ns#"
   xmlns:svg="http://www.w3.org/2000/svg"
   xmlns="http://www.w3.org/2000/svg"
   xmlns:sodipodi="http://sodipodi.sourceforge.net/DTD/sodipodi-0.dtd"
   xmlns:inkscape="http://www.inkscape.org/namespaces/inkscape"
   width="382.37146mm"
   height="91.976738mm"
   viewBox="0 0 382.37146 91.976738"
   version="1.1"
   id="svg8"
   inkscape:version="1.0.2 (e86c870879, 2021-01-15, custom)"
   sodipodi:docname="logo_colour_white.svg">
  <defs
     id="defs2" />
  <sodipodi:namedview
     id="base"
     pagecolor="#ffffff"
     bordercolor="#666666"
     borderopacity="1.0"
     inkscape:pageopacity="0.0"
     inkscape:pageshadow="2"
     inkscape:zoom="0.35"
     inkscape:cx="736.87744"
     inkscape:cy="179.65064"
     inkscape:document-units="mm"
     inkscape:current-layer="g1977-2-4"
     inkscape:document-rotation="0"
     showgrid="false"
     fit-margin-top="0"
     fit-margin-left="0"
     fit-margin-right="0"
     fit-margin-bottom="0"
     inkscape:window-width="1920"
     inkscape:window-height="1017"
     inkscape:window-x="-8"
     inkscape:window-y="-8"
     inkscape:window-maximized="1" />
  <metadata
     id="metadata5">
    <rdf:RDF>
      <cc:Work
         rdf:about="">
        <dc:format>image/svg+xml</dc:format>
        <dc:type
           rdf:resource="http://purl.org/dc/dcmitype/StillImage" />
        <dc:title></dc:title>
      </cc:Work>
    </rdf:RDF>
  </metadata>
  <g
     inkscape:label="Layer 1"
     inkscape:groupmode="layer"
     id="layer1"
     transform="translate(89.132156,-100.6341)">
    <g
       id="g961-9-6-9-1-0-5"
       transform="matrix(4.7657877,0,0,4.7657877,-158.48161,-231.35611)">
      <g
         id="g1448-5-9-3-7"
         transform="matrix(0.8172198,0,0,0.8172198,4.2647749,14.382882)">
        <g
           id="g1977-2-4">
          <path
             id="rect1341-0-9-4-0-3"
             style="fill:#00c7af;fill-opacity:1;stroke:none;stroke-width:24.8494;stroke-linecap:round;stroke-linejoin:round;stroke-miterlimit:0;stroke-dasharray:none;stroke-opacity:1;paint-order:normal"
             d="m 900.47852,347.46094 v 42.16992 l 9.06054,9.06055 h 111.44924 v -24.68946 l -26.54103,-26.54101 z"
             transform="matrix(0.46097362,0,0,0.46097362,-359.8837,-92.528477)" />
          <g
             aria-label="Site"
             id="text839-8-7-6-7-1-2-8"
             style="font-size:12.2192px;line-height:1.25;font-family:'Red Hat Display';-inkscape-font-specification:'Red Hat Display';letter-spacing:0px;word-spacing:0px;fill:#ffffff;fill-opacity:1;stroke-width:0.30548">
            <path
               d="m 58.523672,77.109352 1.014194,-1.270797 q 0.745371,0.647618 1.429646,0.953098 0.696495,0.29326 1.466304,0.29326 0.794248,0 1.270797,-0.29326 0.476549,-0.293261 0.476549,-0.782029 0,-0.439891 -0.329918,-0.684275 -0.3177,-0.244384 -1.07529,-0.366576 l -1.698469,-0.293261 q -1.099728,-0.183288 -1.67403,-0.76981 -0.562083,-0.586521 -0.562083,-1.515181 0,-1.197481 0.90422,-1.893976 0.91644,-0.696494 2.468279,-0.696494 0.928659,0 1.869537,0.317699 0.953098,0.317699 1.661812,0.879783 l -0.953098,1.319673 q -0.684275,-0.525425 -1.344112,-0.769809 -0.659837,-0.256604 -1.356331,-0.256604 -0.708714,0 -1.136386,0.268823 -0.427672,0.256603 -0.427672,0.696494 0,0.391015 0.281042,0.61096 0.281041,0.219946 0.940878,0.317699 l 1.612935,0.268823 q 1.270796,0.207726 1.906195,0.818686 0.647617,0.598741 0.647617,1.588496 0,1.246359 -0.989755,1.99173 -0.977536,0.745371 -2.614909,0.745371 -1.026412,0 -2.028387,-0.391014 -0.989755,-0.391015 -1.759565,-1.087509 z"
               style="font-style:normal;font-variant:normal;font-weight:bold;font-stretch:normal;font-family:'Red Hat Display';-inkscape-font-specification:'Red Hat Display Bold';fill:#ffffff;fill-opacity:1;stroke-width:0.30548"
               id="path840" />
            <path
               d="m 67.700291,71.341889 q -0.391014,0 -0.672056,-0.281041 -0.281041,-0.281042 -0.281041,-0.672056 0,-0.391015 0.281041,-0.672056 0.281042,-0.281042 0.672056,-0.281042 0.391015,0 0.672056,0.281042 0.281042,0.281041 0.281042,0.672056 0,0.391014 -0.281042,0.672056 -0.281041,0.281041 -0.672056,0.281041 z m 0.843125,0.757591 v 6.366203 h -1.67403 V 72.09948 Z"
               style="font-style:normal;font-variant:normal;font-weight:bold;font-stretch:normal;font-family:'Red Hat Display';-inkscape-font-specification:'Red Hat Display Bold';fill:#ffffff;fill-opacity:1;stroke-width:0.30548"
               id="path842" />
            <path
               d="M 70.718428,76.669461 V 73.504688 H 69.410973 V 72.09948 h 1.307455 v -1.625154 l 1.67403,-0.378795 V 72.09948 H 74.2009 v 1.405208 h -1.808442 v 2.822635 q 0,0.45211 0.195507,0.635398 0.195507,0.183288 0.684275,0.183288 0.232165,0 0.439892,-0.02444 0.207726,-0.03666 0.45211,-0.122192 v 1.36855 q -0.268822,0.08553 -0.647618,0.134412 -0.378795,0.0611 -0.647617,0.0611 -1.063071,0 -1.612935,-0.476549 -0.537644,-0.488768 -0.537644,-1.417427 z"
               style="font-style:normal;font-variant:normal;font-weight:bold;font-stretch:normal;font-family:'Red Hat Display';-inkscape-font-specification:'Red Hat Display Bold';fill:#ffffff;fill-opacity:1;stroke-width:0.30548"
               id="path844" />
            <path
               d="m 80.67706,77.671435 q -0.586522,0.476549 -1.209701,0.696494 -0.61096,0.219946 -1.36855,0.219946 -0.720933,0 -1.356331,-0.256603 -0.62318,-0.256603 -1.087509,-0.696495 -0.452111,-0.439891 -0.720933,-1.038632 -0.256603,-0.61096 -0.256603,-1.307454 0,-0.684275 0.244384,-1.283016 0.256603,-0.61096 0.696494,-1.050851 0.439891,-0.452111 1.038632,-0.708714 0.61096,-0.256603 1.295235,-0.256603 0.672056,0 1.246359,0.268822 0.586521,0.256604 1.001974,0.708714 0.427672,0.45211 0.659837,1.087509 0.244384,0.623179 0.244384,1.356331 v 0.439891 h -4.74105 q 0.171069,0.598741 0.659837,0.965317 0.488768,0.366576 1.148605,0.366576 0.415453,0 0.782029,-0.134411 0.366576,-0.134411 0.623179,-0.378795 z m -2.761539,-4.301158 q -0.574303,0 -0.989755,0.354356 -0.415453,0.342138 -0.574303,0.92866 h 3.115896 q -0.158849,-0.562084 -0.586521,-0.91644 -0.415453,-0.366576 -0.965317,-0.366576 z"
               style="font-style:normal;font-variant:normal;font-weight:bold;font-stretch:normal;font-family:'Red Hat Display';-inkscape-font-specification:'Red Hat Display Bold';fill:#ffffff;fill-opacity:1;stroke-width:0.30548"
               id="path846" />
          </g>
          <g
             aria-label="Services"
             id="text839-8-5-0-3-3-8-4-6"
             style="font-size:12.2192px;line-height:1.25;font-family:'Red Hat Display';-inkscape-font-specification:'Red Hat Display';letter-spacing:0px;word-spacing:0px;fill:#ffffff;fill-opacity:1;stroke-width:0.30548">
            <path
               d="m 58.523672,87.207161 1.014194,-1.270797 q 0.745371,0.647617 1.429646,0.953097 0.696495,0.293261 1.466304,0.293261 0.794248,0 1.270797,-0.293261 0.476549,-0.29326 0.476549,-0.782028 0,-0.439892 -0.329918,-0.684276 -0.3177,-0.244384 -1.07529,-0.366576 l -1.698469,-0.29326 q -1.099728,-0.183288 -1.67403,-0.76981 -0.562083,-0.586522 -0.562083,-1.515181 0,-1.197481 0.90422,-1.893976 0.91644,-0.696494 2.468279,-0.696494 0.928659,0 1.869537,0.317699 0.953098,0.317699 1.661812,0.879782 l -0.953098,1.319674 q -0.684275,-0.525426 -1.344112,-0.76981 -0.659837,-0.256603 -1.356331,-0.256603 -0.708714,0 -1.136386,0.268823 -0.427672,0.256603 -0.427672,0.696494 0,0.391014 0.281042,0.61096 0.281041,0.219946 0.940878,0.317699 l 1.612935,0.268823 q 1.270796,0.207726 1.906195,0.818686 0.647617,0.598741 0.647617,1.588496 0,1.246358 -0.989755,1.99173 -0.977536,0.745371 -2.614909,0.745371 -1.026412,0 -2.028387,-0.391015 -0.989755,-0.391014 -1.759565,-1.087508 z"
               style="font-style:normal;font-variant:normal;font-weight:bold;font-stretch:normal;font-family:'Red Hat Display';-inkscape-font-specification:'Red Hat Display Bold';fill:#ffffff;fill-opacity:1;stroke-width:0.30548"
               id="path849" />
            <path
               d="m 72.697924,87.769244 q -0.586522,0.476549 -1.209701,0.696494 -0.61096,0.219946 -1.368551,0.219946 -0.720932,0 -1.356331,-0.256603 -0.623179,-0.256604 -1.087509,-0.696495 -0.45211,-0.439891 -0.720932,-1.038632 -0.256604,-0.61096 -0.256604,-1.307454 0,-0.684275 0.244384,-1.283016 0.256604,-0.61096 0.696495,-1.050851 0.439891,-0.452111 1.038632,-0.708714 0.61096,-0.256603 1.295235,-0.256603 0.672056,0 1.246358,0.268822 0.586522,0.256603 1.001975,0.708714 0.427672,0.45211 0.659837,1.087509 0.244384,0.623179 0.244384,1.356331 v 0.439891 h -4.74105 q 0.171069,0.598741 0.659837,0.965317 0.488768,0.366576 1.148605,0.366576 0.415452,0 0.782028,-0.134411 0.366576,-0.134412 0.62318,-0.378796 z m -2.76154,-4.301159 q -0.574302,0 -0.989755,0.354357 -0.415453,0.342138 -0.574302,0.928659 h 3.115896 q -0.15885,-0.562083 -0.586522,-0.91644 -0.415453,-0.366576 -0.965317,-0.366576 z"
               style="font-style:normal;font-variant:normal;font-weight:bold;font-stretch:normal;font-family:'Red Hat Display';-inkscape-font-specification:'Red Hat Display Bold';fill:#ffffff;fill-opacity:1;stroke-width:0.30548"
               id="path851" />
            <path
               d="m 74.15199,88.563492 v -6.366203 h 1.67403 v 0.696494 q 0.30548,-0.415453 0.733152,-0.623179 0.439892,-0.219946 0.965317,-0.219946 0.244384,0.01222 0.403234,0.04888 0.171069,0.02444 0.293261,0.09775 v 1.466304 q -0.183288,-0.08554 -0.403234,-0.122192 -0.219946,-0.04888 -0.45211,-0.04888 -0.488768,0 -0.904221,0.244384 -0.403234,0.244384 -0.635399,0.708713 v 4.117871 z"
               style="font-style:normal;font-variant:normal;font-weight:bold;font-stretch:normal;font-family:'Red Hat Display';-inkscape-font-specification:'Red Hat Display Bold';fill:#ffffff;fill-opacity:1;stroke-width:0.30548"
               id="path853" />
            <path
               d="m 81.446829,88.563492 -2.737101,-6.366203 h 1.820661 l 1.747346,4.240062 1.735126,-4.240062 h 1.784003 l -2.737101,6.366203 z"
               style="font-style:normal;font-variant:normal;font-weight:bold;font-stretch:normal;font-family:'Red Hat Display';-inkscape-font-specification:'Red Hat Display Bold';fill:#ffffff;fill-opacity:1;stroke-width:0.30548"
               id="path855" />
            <path
               d="m 87.287606,81.439698 q -0.391014,0 -0.672056,-0.281041 -0.281042,-0.281042 -0.281042,-0.672056 0,-0.391015 0.281042,-0.672056 0.281042,-0.281042 0.672056,-0.281042 0.391014,0 0.672056,0.281042 0.281042,0.281041 0.281042,0.672056 0,0.391014 -0.281042,0.672056 -0.281042,0.281041 -0.672056,0.281041 z m 0.843125,0.757591 v 6.366203 H 86.4567 v -6.366203 z"
               style="font-style:normal;font-variant:normal;font-weight:bold;font-stretch:normal;font-family:'Red Hat Display';-inkscape-font-specification:'Red Hat Display Bold';fill:#ffffff;fill-opacity:1;stroke-width:0.30548"
               id="path857" />
            <path
               d="m 92.554076,87.21938 q 0.427672,0 0.794248,-0.171069 0.378795,-0.171069 0.720933,-0.537645 l 1.001974,1.038632 q -0.488768,0.537645 -1.173043,0.843125 -0.684275,0.293261 -1.417427,0.293261 -0.696495,0 -1.319674,-0.256603 -0.61096,-0.256604 -1.06307,-0.696495 -0.439891,-0.439891 -0.696495,-1.038632 -0.256603,-0.61096 -0.256603,-1.307454 0,-0.696495 0.256603,-1.295235 0.256604,-0.61096 0.696495,-1.050852 0.45211,-0.45211 1.06307,-0.708713 0.623179,-0.256603 1.319674,-0.256603 0.75759,0 1.454085,0.30548 0.696494,0.29326 1.185262,0.830905 l -1.026413,1.087509 q -0.342137,-0.378795 -0.733152,-0.574302 -0.391014,-0.195508 -0.843125,-0.195508 -0.720932,0 -1.22192,0.537645 -0.488768,0.537645 -0.488768,1.319674 0,0.782029 0.500988,1.307454 0.513206,0.525426 1.246358,0.525426 z"
               style="font-style:normal;font-variant:normal;font-weight:bold;font-stretch:normal;font-family:'Red Hat Display';-inkscape-font-specification:'Red Hat Display Bold';fill:#ffffff;fill-opacity:1;stroke-width:0.30548"
               id="path859" />
            <path
               d="m 101.40076,87.769244 q -0.58652,0.476549 -1.2097,0.696494 -0.610956,0.219946 -1.368547,0.219946 -0.720933,0 -1.356331,-0.256603 -0.623179,-0.256604 -1.087509,-0.696495 -0.45211,-0.439891 -0.720933,-1.038632 -0.256603,-0.61096 -0.256603,-1.307454 0,-0.684275 0.244384,-1.283016 0.256603,-0.61096 0.696495,-1.050851 0.439891,-0.452111 1.038632,-0.708714 0.61096,-0.256603 1.295235,-0.256603 0.672056,0 1.246358,0.268822 0.586519,0.256603 1.001979,0.708714 0.42767,0.45211 0.65983,1.087509 0.24439,0.623179 0.24439,1.356331 v 0.439891 h -4.741053 q 0.171069,0.598741 0.659837,0.965317 0.488768,0.366576 1.148604,0.366576 0.415453,0 0.782029,-0.134411 0.366573,-0.134412 0.623183,-0.378796 z m -2.761535,-4.301159 q -0.574302,0 -0.989755,0.354357 -0.415453,0.342138 -0.574302,0.928659 h 3.115892 q -0.15885,-0.562083 -0.586518,-0.91644 -0.415453,-0.366576 -0.965317,-0.366576 z"
               style="font-style:normal;font-variant:normal;font-weight:bold;font-stretch:normal;font-family:'Red Hat Display';-inkscape-font-specification:'Red Hat Display Bold';fill:#ffffff;fill-opacity:1;stroke-width:0.30548"
               id="path861" />
            <path
               d="m 102.37827,87.805901 0.83091,-1.111947 q 0.56208,0.366576 1.06307,0.549864 0.50099,0.171069 1.00197,0.171069 0.56209,0 0.892,-0.183288 0.34214,-0.183288 0.34214,-0.488768 0,-0.244384 -0.1955,-0.391014 -0.18329,-0.146631 -0.59875,-0.207727 l -1.22192,-0.183288 q -0.94087,-0.14663 -1.44186,-0.61096 -0.48877,-0.464329 -0.48877,-1.234139 0,-0.91644 0.72093,-1.466304 0.72094,-0.549864 1.93064,-0.549864 0.69649,0 1.35633,0.207726 0.65984,0.195508 1.25858,0.586522 l -0.80647,1.07529 q -0.52543,-0.30548 -1.00198,-0.452111 -0.47654,-0.158849 -0.96531,-0.158849 -0.45211,0 -0.73315,0.171068 -0.26883,0.171069 -0.26883,0.452111 0,0.256603 0.19551,0.403233 0.20773,0.134412 0.67206,0.195508 l 1.22192,0.183288 q 0.92866,0.134411 1.42964,0.61096 0.51321,0.476548 0.51321,1.2097 0,0.452111 -0.21995,0.843125 -0.20772,0.378795 -0.5743,0.659837 -0.36657,0.281042 -0.87978,0.439891 -0.51321,0.15885 -1.11195,0.15885 -0.86756,0 -1.62515,-0.219946 -0.75759,-0.232165 -1.29524,-0.659837 z"
               style="font-style:normal;font-variant:normal;font-weight:bold;font-stretch:normal;font-family:'Red Hat Display';-inkscape-font-specification:'Red Hat Display Bold';fill:#ffffff;fill-opacity:1;stroke-width:0.30548"
               id="path863" />
          </g>
          <path
             id="path1862-3-6-4"
             style="font-style:normal;font-variant:normal;font-weight:900;font-stretch:normal;font-size:32.6215px;line-height:1.25;font-family:'Red Hat Display';-inkscape-font-specification:'Red Hat Display Heavy';letter-spacing:0px;word-spacing:0px;fill:#ffffff;fill-opacity:1;stroke-width:1.76916"
             d="m 854.50391,348.86523 v 40.76368 l 8.77539,8.77343 h 29.50976 v -10.75586 h -26.11328 v -38.78125 z"
             transform="matrix(0.46097362,0,0,0.46097362,-359.8837,-92.528477)" />
          <path
             id="path1860-3-3-6"
             style="font-style:normal;font-variant:normal;font-weight:900;font-stretch:normal;font-size:32.6215px;line-height:1.25;font-family:'Red Hat Display';-inkscape-font-specification:'Red Hat Display Heavy';letter-spacing:0px;word-spacing:0px;fill:#ffffff;fill-opacity:1;stroke-width:1.76916"
             d="m 808.00977,348.86523 v 40.64844 l 8.88867,8.88867 h 30.45703 v -10.54492 h -27.17383 v -9.33984 h 17.76367 v -10.19141 h -17.76367 v -8.91601 h 26.89258 v -10.54493 z"
             transform="matrix(0.46097362,0,0,0.46097362,-359.8837,-92.528477)" />
        </g>
      </g>
    </g>
  </g>
</svg>
